<?xml version="1.0" encoding="UTF-8" standalone="no"?>
<!-- Created with Inkscape (http://www.inkscape.org/) -->

<svg
   xmlns:dc="http://purl.org/dc/elements/1.1/"
   xmlns:cc="http://creativecommons.org/ns#"
   xmlns:rdf="http://www.w3.org/1999/02/22-rdf-syntax-ns#"
   xmlns:svg="http://www.w3.org/2000/svg"
   xmlns="http://www.w3.org/2000/svg"
   xmlns:xlink="http://www.w3.org/1999/xlink"
   xmlns:sodipodi="http://sodipodi.sourceforge.net/DTD/sodipodi-0.dtd"
   xmlns:inkscape="http://www.inkscape.org/namespaces/inkscape"
   version="1.0"
   width="48"
   height="48"
   id="svg97"
   inkscape:version="0.91 r13725"
   sodipodi:docname="osvr_server_icon.svg"
   inkscape:export-filename="osvr_server_icon_24.png"
   inkscape:export-xdpi="45"
   inkscape:export-ydpi="45">
  <metadata
     id="metadata3460">
    <rdf:RDF>
      <cc:Work
         rdf:about="">
        <dc:format>image/svg+xml</dc:format>
        <dc:type
           rdf:resource="http://purl.org/dc/dcmitype/StillImage" />
        <dc:title />
      </cc:Work>
    </rdf:RDF>
  </metadata>
  <sodipodi:namedview
     pagecolor="#ffffff"
     bordercolor="#666666"
     borderopacity="1"
     objecttolerance="10"
     gridtolerance="10"
     guidetolerance="10"
     inkscape:pageopacity="0"
     inkscape:pageshadow="2"
     inkscape:window-width="1920"
     inkscape:window-height="1017"
     id="namedview3458"
     showgrid="true"
     inkscape:zoom="19.666667"
     inkscape:cx="26.443846"
     inkscape:cy="26.439944"
     inkscape:window-x="-8"
     inkscape:window-y="-8"
     inkscape:window-maximized="1"
     inkscape:current-layer="layer1">
    <inkscape:grid
       type="xygrid"
       id="grid3512" />
  </sodipodi:namedview>
  <defs
     id="defs3">
    <linearGradient
       id="linearGradient158">
      <stop
         id="stop159"
         style="stop-color:#686868;stop-opacity:0"
         offset="0" />
      <stop
         id="stop162"
         style="stop-color:#686868;stop-opacity:1"
         offset="0.23762377" />
      <stop
         id="stop163"
         style="stop-color:#686868;stop-opacity:1"
         offset="0.78109992" />
      <stop
         id="stop160"
         style="stop-color:#686868;stop-opacity:0"
         offset="1" />
    </linearGradient>
    <linearGradient
       x1="1.6422368"
       y1="117.8271"
       x2="15.343062"
       y2="117.8271"
       id="linearGradient1447"
       xlink:href="#linearGradient158"
       gradientUnits="userSpaceOnUse"
       gradientTransform="matrix(2.740165,0,0,0.364942,0.457491,-0.477254)" />
    <linearGradient
       x1="0.61210024"
       y1="372.57819"
       x2="5.0856376"
       y2="372.57819"
       id="linearGradient1445"
       xlink:href="#linearGradient272"
       gradientUnits="userSpaceOnUse"
       gradientTransform="matrix(8.168597,0,0,0.22121,0.457491,-37.86827)" />
    <linearGradient
       id="linearGradient272">
      <stop
         id="stop273"
         style="stop-color:#474747;stop-opacity:0"
         offset="0" />
      <stop
         id="stop275"
         style="stop-color:#474747;stop-opacity:1"
         offset="0.1" />
      <stop
         id="stop276"
         style="stop-color:#474747;stop-opacity:1"
         offset="0.89999998" />
      <stop
         id="stop274"
         style="stop-color:#474747;stop-opacity:0"
         offset="1" />
    </linearGradient>
    <linearGradient
       x1="0.61210024"
       y1="372.57819"
       x2="5.0856376"
       y2="372.57819"
       id="linearGradient1443"
       xlink:href="#linearGradient272"
       gradientUnits="userSpaceOnUse"
       gradientTransform="matrix(8.168597,0,0,0.228621,0.457491,-36.56817)" />
    <linearGradient
       id="linearGradient178">
      <stop
         id="stop179"
         style="stop-color:#ffffff;stop-opacity:0"
         offset="0" />
      <stop
         id="stop180"
         style="stop-color:#ffffff;stop-opacity:0.70658684"
         offset="0.10827128" />
      <stop
         id="stop181"
         style="stop-color:#ffffff;stop-opacity:0.70658684"
         offset="0.92053902" />
      <stop
         id="stop182"
         style="stop-color:#ffffff;stop-opacity:0"
         offset="1" />
    </linearGradient>
    <linearGradient
       x1="1.6422368"
       y1="117.8271"
       x2="15.343062"
       y2="117.8271"
       id="linearGradient1441"
       xlink:href="#linearGradient178"
       gradientUnits="userSpaceOnUse"
       gradientTransform="matrix(2.740165,0,0,0.131557,0.457491,26.77817)" />
    <linearGradient
       id="linearGradient204">
      <stop
         id="stop205"
         style="stop-color:#7a7a7a;stop-opacity:1"
         offset="0" />
      <stop
         id="stop207"
         style="stop-color:#c5c5c5;stop-opacity:1"
         offset="0.1980198" />
      <stop
         id="stop208"
         style="stop-color:#626262;stop-opacity:1"
         offset="0.59900987" />
      <stop
         id="stop206"
         style="stop-color:#888888;stop-opacity:1"
         offset="1" />
    </linearGradient>
    <linearGradient
       x1="23.100046"
       y1="38.296745"
       x2="23.100046"
       y2="43.915466"
       id="linearGradient203"
       xlink:href="#linearGradient204"
       gradientUnits="userSpaceOnUse"
       gradientTransform="matrix(0.983801,0,0,1.016466,0.457491,0.522745)" />
    <linearGradient
       id="linearGradient218">
      <stop
         id="stop219"
         style="stop-color:#ffffff;stop-opacity:0.44910181"
         offset="0" />
      <stop
         id="stop222"
         style="stop-color:#ffffff;stop-opacity:0"
         offset="1" />
    </linearGradient>
    <linearGradient
       x1="36.373066"
       y1="22.227985"
       x2="38.105118"
       y2="22.227985"
       id="linearGradient1439"
       xlink:href="#linearGradient218"
       gradientUnits="userSpaceOnUse"
       gradientTransform="matrix(1.138691,0,0,1.732051,-19.96021,-0.977254)" />
    <linearGradient
       id="linearGradient264">
      <stop
         id="stop265"
         style="stop-color:#000000;stop-opacity:0.502994"
         offset="0" />
      <stop
         id="stop266"
         style="stop-color:#000000;stop-opacity:0"
         offset="1" />
    </linearGradient>
    <linearGradient
       x1="28.632685"
       y1="29.943159"
       x2="28.783722"
       y2="31.490198"
       id="linearGradient1437"
       xlink:href="#linearGradient264"
       gradientUnits="userSpaceOnUse"
       gradientTransform="matrix(0.810817,0,0,1.233324,0.457491,-0.852254)" />
    <linearGradient
       id="linearGradient9806">
      <stop
         id="stop9808"
         style="stop-color:#000000;stop-opacity:1"
         offset="0" />
      <stop
         id="stop9810"
         style="stop-color:#000000;stop-opacity:0"
         offset="1" />
    </linearGradient>
    <linearGradient
       id="linearGradient9766">
      <stop
         id="stop9768"
         style="stop-color:#6194cb;stop-opacity:1"
         offset="0" />
      <stop
         id="stop9770"
         style="stop-color:#729fcf;stop-opacity:1"
         offset="1" />
    </linearGradient>
    <linearGradient
       id="linearGradient3096">
      <stop
         id="stop3098"
         style="stop-color:#424242;stop-opacity:1"
         offset="0" />
      <stop
         id="stop3100"
         style="stop-color:#777777;stop-opacity:1"
         offset="1" />
    </linearGradient>
    <linearGradient
       id="linearGradient319">
      <stop
         id="stop320"
         style="stop-color:#ffffff;stop-opacity:1"
         offset="0" />
      <stop
         id="stop321"
         style="stop-color:#ffffff;stop-opacity:0"
         offset="1" />
    </linearGradient>
    <linearGradient
       id="linearGradient1789">
      <stop
         id="stop1790"
         style="stop-color:#202020;stop-opacity:1"
         offset="0" />
      <stop
         id="stop1791"
         style="stop-color:#b9b9b9;stop-opacity:1"
         offset="1" />
    </linearGradient>
    <radialGradient
       cx="20.706017"
       cy="37.517986"
       r="30.905205"
       fx="20.706017"
       fy="37.517986"
       id="radialGradient238"
       xlink:href="#linearGradient1789"
       gradientUnits="userSpaceOnUse"
       gradientTransform="matrix(1.055022,-2.734504e-2,0.177703,1.190929,-2.622386,-11.16822)" />
    <linearGradient
       id="linearGradient3983">
      <stop
         id="stop3984"
         style="stop-color:#ffffff;stop-opacity:0.87628865"
         offset="0" />
      <stop
         id="stop3985"
         style="stop-color:#fffffe;stop-opacity:0"
         offset="1" />
    </linearGradient>
    <linearGradient
       x1="6.2297964"
       y1="13.773066"
       x2="9.8980894"
       y2="66.834053"
       id="linearGradient491"
       xlink:href="#linearGradient3983"
       gradientUnits="userSpaceOnUse"
       gradientTransform="matrix(1.516844,0,0,0.708978,7.021747e-2,-5.361085)" />
    <linearGradient
       x1="13.035696"
       y1="32.567184"
       x2="12.853771"
       y2="46.689312"
       id="linearGradient322"
       xlink:href="#linearGradient319"
       gradientUnits="userSpaceOnUse"
       gradientTransform="matrix(1.317489,0,0,0.816256,7.021747e-2,-5.361085)" />
    <linearGradient
       x1="18.112709"
       y1="31.36775"
       x2="15.514889"
       y2="6.1802502"
       id="linearGradient3104"
       xlink:href="#linearGradient3096"
       gradientUnits="userSpaceOnUse"
       gradientTransform="translate(0.949791,-4.042919)" />
    <linearGradient
       x1="22.175976"
       y1="36.987999"
       x2="22.065331"
       y2="32.050499"
       id="linearGradient9772"
       xlink:href="#linearGradient9766"
       gradientUnits="userSpaceOnUse"
       gradientTransform="translate(0.949791,-4.042919)" />
    <radialGradient
       cx="24.35099"
       cy="41.591846"
       r="19.136078"
       fx="24.35099"
       fy="41.591846"
       id="radialGradient9812"
       xlink:href="#linearGradient9806"
       gradientUnits="userSpaceOnUse"
       gradientTransform="matrix(1,0,0,0.242494,0,31.50606)" />
  </defs>
  <g
     id="layer1">
    <rect
       width="36.542522"
       height="4"
       x="5.4574776"
       y="40.522766"
       id="rect69"
       style="fill:url(#linearGradient1447);fill-opacity:1;fill-rule:nonzero;stroke:none;stroke-width:1;stroke-linecap:butt;stroke-linejoin:miter;marker:none;marker-start:none;marker-mid:none;marker-end:none;stroke-miterlimit:4;stroke-dashoffset:0;stroke-opacity:1;visibility:visible;display:block;overflow:visible" />
    <rect
       width="36.542522"
       height="0.98959237"
       x="5.4574776"
       y="44.055054"
       id="rect255"
       style="fill:url(#linearGradient1445);fill-opacity:1;fill-rule:nonzero;stroke:none;stroke-width:1;stroke-linecap:butt;stroke-linejoin:miter;marker:none;marker-start:none;marker-mid:none;marker-end:none;stroke-miterlimit:4;stroke-dashoffset:0;stroke-opacity:1;visibility:visible;display:block;overflow:visible" />
    <rect
       width="36.542522"
       height="1.022747"
       x="5.4574776"
       y="40"
       id="rect250"
       style="fill:url(#linearGradient1443);fill-opacity:1;fill-rule:nonzero;stroke:none;stroke-width:1;stroke-linecap:butt;stroke-linejoin:miter;marker:none;marker-start:none;marker-mid:none;marker-end:none;stroke-miterlimit:4;stroke-dashoffset:0;stroke-opacity:1;visibility:visible;display:block;overflow:visible" />
    <rect
       width="36.542522"
       height="1.4419417"
       x="5.4574776"
       y="41.55806"
       id="rect176"
       style="opacity:0.83707862;fill:url(#linearGradient1441);fill-opacity:1;fill-rule:nonzero;stroke:none;stroke-width:1;stroke-linecap:butt;stroke-linejoin:miter;marker:none;marker-start:none;marker-mid:none;marker-end:none;stroke-miterlimit:4;stroke-dashoffset:0;stroke-opacity:1;visibility:visible;display:block;overflow:visible" />
    <path
       d="M 21.923478,29.991506 C 21.139998,29.991506 20.517228,30.614276 20.517228,31.397756 L 20.517228,38.491506 L 16.892228,38.491506 C 16.108748,38.491506 15.485978,39.114276 15.485978,39.897756 L 15.485978,44.116506 C 15.485978,44.899976 16.108748,45.522756 16.892228,45.522756 L 30.079728,45.522756 C 30.863198,45.522756 31.485978,44.899976 31.485978,44.116506 L 31.485978,39.897756 C 31.485978,39.114276 30.863198,38.491506 30.079728,38.491506 L 27.048478,38.491506 L 27.048478,31.397756 C 27.048478,30.614276 26.425698,29.991506 25.642228,29.991506 L 21.923478,29.991506 z"
       id="rect183"
       style="fill:url(#linearGradient203);fill-opacity:1;fill-rule:nonzero;stroke:#434343;stroke-width:1;stroke-linecap:butt;stroke-linejoin:miter;marker:none;marker-start:none;marker-mid:none;marker-end:none;stroke-miterlimit:4;stroke-dashoffset:0;stroke-opacity:1;visibility:visible;display:block;overflow:visible" />
    <rect
       width="1.9722718"
       height="3"
       rx="0.29955584"
       ry="0.29955584"
       x="21.457478"
       y="36.022766"
       id="rect209"
       style="fill:url(#linearGradient1439);fill-opacity:1;fill-rule:nonzero;stroke:none;stroke-width:1;stroke-linecap:butt;stroke-linejoin:miter;marker:none;marker-start:none;marker-mid:none;marker-end:none;stroke-miterlimit:4;stroke-dashoffset:0;stroke-opacity:1;visibility:visible;display:block;overflow:visible" />
    <path
       d="M 26.551238,35.975876 L 21.019988,35.975876 C 21.019988,35.975876 21.019988,37.663376 21.019988,38.147756 C 21.566858,36.366506 26.551238,35.975876 26.551238,35.975876 z"
       id="path258"
       style="fill:url(#linearGradient1437);fill-opacity:1;fill-rule:nonzero;stroke:none;stroke-width:1;stroke-linecap:butt;stroke-linejoin:miter;marker:none;marker-start:none;marker-mid:none;marker-end:none;stroke-miterlimit:4;stroke-dashoffset:0;stroke-opacity:1;visibility:visible;display:block;overflow:visible" />
    <g
       transform="translate(-0.570309,0.900845)"
       id="g236"
       style="fill:#ffffff;fill-opacity:0.72023806">
      <rect
         width="11.5625"
         height="0.99999994"
         rx="0.5"
         ry="0.49999997"
         x="19.007809"
         y="39.099155"
         id="rect226"
         style="fill-rule:nonzero;stroke:none;stroke-width:1.13999999;stroke-linecap:round;stroke-linejoin:round;marker:none;marker-start:none;marker-mid:none;marker-end:none;stroke-miterlimit:4;stroke-dashoffset:0;stroke-opacity:1;visibility:visible;display:block;overflow:visible" />
      <path
         d="M 19,40.625 A 0.53125,0.53125 0 1 1 17.9375,40.625 A 0.53125,0.53125 0 1 1 19,40.625 z"
         transform="matrix(0.94118,0,0,0.94118,0.687895,1.413727)"
         id="path235"
         style="fill-rule:nonzero;stroke:none;stroke-width:1.13999999;stroke-linecap:round;stroke-linejoin:round;marker:none;marker-start:none;marker-mid:none;marker-end:none;stroke-miterlimit:4;stroke-dashoffset:0;stroke-opacity:1;visibility:visible;display:block;overflow:visible" />
    </g>
    <path
       d="M 43.487068,41.591846 A 19.136078,4.6403885 0 1 1 5.2149124,41.591846 A 19.136078,4.6403885 0 1 1 43.487068,41.591846 z"
       transform="matrix(0.914503,0,0,1.010469,1.230945,-6.71624)"
       id="path9804"
       style="opacity:0.55681817;fill:url(#radialGradient9812);fill-opacity:1;fill-rule:nonzero;stroke:none;stroke-width:1;stroke-linecap:round;stroke-linejoin:round;marker:none;marker-start:none;marker-mid:none;marker-end:none;stroke-miterlimit:4;stroke-dasharray:none;stroke-dashoffset:0;stroke-opacity:1;visibility:visible;display:inline;overflow:visible" />
    <g
       transform="matrix(0.18729713,0,0,0.18729713,-46.236424,-81.34484)"
       id="g3475">
      <path
         inkscape:connector-curvature="0"
         id="path22"
         style="fill:#ff8000;fill-opacity:1;fill-rule:nonzero;stroke:none"
         d="m 484.09376,617.91532 c 0,6.875 -5.625,12.5 -12.5,12.5 l -193.18752,0 c -6.875,0 -12.5,-5.625 -12.5,-12.5 l 0,-171.10626 c 0,-6.875 5.625,-12.5 12.5,-12.5 l 193.18752,0 c 6.875,0 12.5,5.625 12.5,12.5 l 0,171.10626 z" />
      <path
         id="path3144"
         d="m 319.20814,471.83985 c -5.25536,0 -9.07821,1.12253 -11.625,3.28125 -2.54679,2.15872 -3.65625,5.29459 -3.65625,8.75 l 0,23.09375 c 0,3.45598 1.10941,6.59143 3.65625,8.75 2.54684,2.15857 6.3697,3.28125 11.625,3.28125 l 29.5,0 c 5.2559,0 9.07799,-1.12268 11.625,-3.28125 2.54701,-2.15857 3.625,-5.29402 3.625,-8.75 l 0,-23.09375 c 0,-3.45541 -1.07803,-6.59129 -3.625,-8.75 -2.54697,-2.15871 -6.36905,-3.28125 -11.625,-3.28125 l -29.5,0 z m 0,9.09375 29.5,0 c 1.74343,0 2.8665,0.35578 3.46875,0.8125 0.60224,0.45672 0.84375,1.0079 0.84375,2.0625 l 0,23.21875 c 0,1.0546 -0.24151,1.60578 -0.84375,2.0625 -0.60224,0.45672 -1.72532,0.8125 -3.46875,0.8125 l -29.5,0 c -1.74344,0 -2.86687,-0.3559 -3.46875,-0.8125 -0.60189,-0.4566 -0.875,-1.00771 -0.875,-2.0625 l 0,-23.21875 c 0,-1.05479 0.27311,-1.6059 0.875,-2.0625 0.60188,-0.4566 1.72531,-0.8125 3.46875,-0.8125 z"
         style="font-variant:normal;font-weight:normal;font-stretch:normal;font-size:1.59405065px;font-family:'Pirulen Rg';-inkscape-font-specification:PirulenRg-Regular;writing-mode:lr-tb;fill:#ffffff;fill-opacity:1;fill-rule:nonzero;stroke:none"
         inkscape:connector-curvature="0" />
      <path
         id="path3146"
         d="m 399.89563,471.83985 c -5.25535,0 -9.07821,1.12253 -11.625,3.28125 -2.54679,2.15872 -3.65625,5.29459 -3.65625,8.75 l 0,2.59375 c 0,3.45599 1.10941,6.59143 3.65625,8.75 2.54684,2.15857 6.3697,3.3125 11.625,3.3125 l 26.28125,0 c 1.74343,0 2.83525,0.35578 3.4375,0.8125 0.60225,0.45672 0.875,1.0079 0.875,2.0625 l 0,5.625 c 0,1.05459 -0.27275,1.60578 -0.875,2.0625 -0.60225,0.45672 -1.69407,0.8125 -3.4375,0.8125 l -38.84375,0 -1.25,0 0,1.25 0,6.59375 0,1.25 1.25,0 38.84375,0 1.25,0 0,-0.15625 c 4.5353,-0.18731 8.0617,-1.16464 10.375,-3.125 2.54714,-2.15853 3.625,-5.29394 3.625,-8.75 l 0,-5.5 c 0,-3.45549 -1.07791,-6.59133 -3.625,-8.75 -2.54709,-2.15867 -6.36964,-3.3125 -11.625,-3.3125 l -26.28125,0 c -1.74412,0 -2.86674,-0.32463 -3.46875,-0.78125 -0.60201,-0.45662 -0.875,-1.0077 -0.875,-2.0625 l 0,-2.75 c 0,-1.05479 0.27299,-1.60588 0.875,-2.0625 0.60201,-0.45662 1.72463,-0.8125 3.46875,-0.8125 l 37.8125,0 1.25,0 0,-1.25 0,-6.59375 0,-1.25 -1.25,0 -37.8125,0 z"
         style="font-variant:normal;font-weight:normal;font-stretch:normal;font-size:1.59405065px;font-family:'Pirulen Rg';-inkscape-font-specification:PirulenRg-Regular;writing-mode:lr-tb;fill:#ffffff;fill-opacity:1;fill-rule:nonzero;stroke:none"
         inkscape:connector-curvature="0" />
      <path
         id="path3164"
         d="m 299.02064,547.99611 1.3125,1.9375 29.6875,44.65625 0.375,0.5625 0.65625,0 6.15625,0 0.6875,0 0.375,-0.5625 29.49999,-44.65625 1.28125,-1.9375 -2.34375,0 -9.31249,0 -0.6875,0 -0.375,0.5625 -22.0625,34.34375 -22.28125,-34.34375 -0.375,-0.5625 -0.65625,0 -9.59375,0 -2.34375,0 z"
         style="font-variant:normal;font-weight:normal;font-stretch:normal;font-size:63.44799805px;font-family:'Pirulen Rg';-inkscape-font-specification:PirulenRg-Regular;writing-mode:lr-tb;fill:#ffffff;fill-opacity:1;fill-rule:nonzero;stroke:none"
         inkscape:connector-curvature="0" />
      <path
         id="path3166"
         d="m 385.52063,547.99611 0,1.25 0,44.65625 0,1.25 1.25,0 8.4375,0 1.25,0 0,-1.25 0,-18.6875 21.53125,0 10.125,19.25 0.34375,0.6875 0.75,0 9,0 2.0625,0 -0.9375,-1.84375 -9.78125,-18.625 c 3.20404,-0.57887 5.82973,-1.62836 7.53125,-3.40625 2.02754,-2.11854 2.90625,-4.98253 2.90625,-8.09375 l 0,-3.15625 c 0,-3.45599 -1.10927,-6.5911 -3.65625,-8.75 -2.54698,-2.1589 -6.36904,-3.28125 -11.625,-3.28125 l -37.9375,0 -1.25,0 z m 10.9375,9.09375 28.25,0 c 1.74399,0 2.86666,0.35562 3.46875,0.8125 0.60209,0.45688 0.84375,1.00771 0.84375,2.0625 l 0,3.28125 c 0,1.05478 -0.24166,1.60561 -0.84375,2.0625 -0.60209,0.45689 -1.72477,0.8125 -3.46875,0.8125 l -28.25,0 0,-9.03125 z"
         style="font-variant:normal;font-weight:normal;font-stretch:normal;font-size:63.44799805px;font-family:'Pirulen Rg';-inkscape-font-specification:PirulenRg-Regular;writing-mode:lr-tb;fill:#ffffff;fill-opacity:1;fill-rule:nonzero;stroke:none"
         inkscape:connector-curvature="0" />
    </g>
  </g>
  <g
     id="layer2" />
</svg>
